<?xml version="1.0" encoding="utf-8"?>
<!-- Generator: Adobe Illustrator 21.0.0, SVG Export Plug-In . SVG Version: 6.00 Build 0)  -->
<svg version="1.1" id="Layer_1" xmlns="http://www.w3.org/2000/svg" xmlns:xlink="http://www.w3.org/1999/xlink" x="0px" y="0px"
	 viewBox="0 0 1537.4 794.3" style="enable-background:new 0 0 1537.4 794.3;" xml:space="preserve">
<style type="text/css">
	.st0{fill:#FFFFFF;}
</style>
<path class="st0" d="M334.9,527.9h-38.7v-114h-58.9v114h-38.7V266.4h38.7v114h58.9v-114h38.7V527.9z"/>
<path class="st0" d="M477.4,494.3v33.6H365.8V266.4h109V300h-70.4v80.4h64.5V414h-64.5v80.4h73V494.3z"/>
<path class="st0" d="M497.1,464.5v-21.7h39l0.4,19.2c0,26.9,8.8,40.9,27.3,40.9c17.3,0,25.4-12.2,25.4-31.7v-9.6
	c0-20.6-2.6-30.9-22.8-44.2L535,397.5c-26.2-16.9-35.4-36.5-35.4-63.4v-13.3c0-37.9,25.4-60.8,64.1-60.8c41.3,0,64.8,18.1,64.8,64.1
	v19.5l-38.7-0.8v-15c0-24.3-8.1-36.8-26.2-36.8c-15.8,0-24.3,11.4-24.3,27.3v12.5c0,16.9,6.3,28,21.7,37.6l32,20.6
	c29.5,18.8,36.1,39,36.1,67.4v14c0,40.2-22.5,63.7-65.9,63.7C520.6,534.2,497.1,509.5,497.1,464.5z"/>
<path class="st0" d="M786.7,300.2h-50.8v227.7H698V300.2h-51.2v-33.9h140L786.7,300.2L786.7,300.2z"/>
<path class="st0" d="M924.1,494.3v33.6H812.4V266.4H924V300h-72.9v77.3h64.5v33.6h-64.5v83.5h73V494.3z"/>
<path class="st0" d="M1016.1,408.2h-22.5l0.1,119.7H955V266.4h61.5c47.9,0,67.4,24.3,67.8,67v14.7c0,32.4-12.3,52-32.5,60.8
	l39.2,119h-40.9L1016.1,408.2z M1014.3,377.4c21.7,0,30.2-2.8,30.2-32.7v-17.2c0-29.8-8.4-32.9-30.6-32.9h-20.3v82.7h20.7V377.4z"/>
<g>
	<path class="st0" d="M1194.9,432.3c-26.7,0-42.1-16-42.1-44v-16.1l29.8-0.1v14.7c0,20.4,9.1,20.4,12.5,20.4c2.8,0,11.4,0,11.4-15.1
		v-5.6c0-11-1-15.9-11.8-22.9l-18.2-11.6c-15.6-10.1-22.2-22-22.2-39.8v-7.7c0-23.6,16-38.9,40.8-38.9c27.3,0,41.2,13.7,41.2,40.8
		v14.8l-29.4-0.1v-12.5c0-16-6.3-18.1-11.8-18.1c-9.7,0-10.8,8.7-10.8,12.5v7.3c0,8.7,3.1,14.1,11.1,19l18.7,12.1
		c18.8,12,22.6,25.5,22.6,42.2v8.2C1236.8,417.5,1221.5,432.3,1194.9,432.3z"/>
</g>
<g>
	<path class="st0" d="M1309.2,430.6h-29V292.9h-29.9v-26.6h88.4v26.6h-29.6L1309.2,430.6L1309.2,430.6z"/>
</g>
<rect x="198.6" y="198.6" class="st0" width="1140.3" height="33.9"/>
<rect x="198.6" y="561.8" class="st0" width="1140.3" height="33.9"/>
</svg>
